# Blender v2.81 (sub 16) OBJ File: ''
# www.blender.org
mtllib ball.mtl
o Cube_Cube.001
v 1.525186 -0.500000 3.592743
v 1.525186 0.500000 3.592743
v 1.006813 -0.500000 2.737589
v 1.006813 0.500000 2.737589
v 2.380341 -0.500000 3.074370
v 2.380341 0.500000 3.074370
v 1.861968 -0.500000 2.219216
v 1.861968 0.500000 2.219216
v 1.049855 -0.572933 2.949291
v 1.172302 -0.609568 3.221963
v 1.357406 -0.572933 3.456654
v 1.500624 -0.296650 3.692919
v 1.488286 -0.000000 3.743238
v 1.500623 0.296650 3.692919
v 1.357406 0.572933 3.456654
v 1.172302 0.609568 3.221963
v 1.049855 0.572933 2.949291
v 0.906638 0.296650 2.713026
v 0.856318 -0.000000 2.700688
v 0.906638 -0.296650 2.713026
v 1.650266 -0.572933 2.262258
v 1.377593 -0.609568 2.384705
v 1.142902 -0.572933 2.569809
v 1.142902 0.572933 2.569809
v 1.377593 0.609568 2.384705
v 1.650265 0.572933 2.262258
v 1.886530 0.296650 2.119040
v 1.898868 -0.000000 2.068721
v 1.886530 -0.296650 2.119040
v 2.337298 -0.572933 2.862668
v 2.214852 -0.609568 2.589996
v 2.029747 -0.572933 2.355305
v 2.029748 0.572933 2.355305
v 2.214852 0.609568 2.589996
v 2.337298 0.572933 2.862668
v 2.480516 0.296650 3.098933
v 2.530835 -0.000000 3.111271
v 2.480516 -0.296650 3.098933
v 1.736888 -0.572933 3.549701
v 2.009560 -0.609568 3.427254
v 2.244251 -0.572933 3.242151
v 2.244251 0.572933 3.242151
v 2.009560 0.609568 3.427254
v 1.736888 0.572933 3.549701
v 1.234065 -0.316157 3.554232
v 1.197683 -0.000000 3.596145
v 1.234065 0.316157 3.554232
v 1.024992 -0.333140 3.311259
v 0.975669 0.000000 3.341157
v 1.024992 0.333140 3.311259
v 0.906290 -0.316157 3.013505
v 0.852301 0.000000 3.026372
v 0.906290 0.316157 3.013505
v 1.045325 -0.316157 2.446468
v 1.003411 -0.000000 2.410086
v 1.045325 0.316157 2.446468
v 1.288298 -0.333140 2.237395
v 1.258399 0.000000 2.188072
v 1.288298 0.333140 2.237395
v 1.586051 -0.316157 2.118693
v 1.573184 0.000000 2.064704
v 1.586051 0.316157 2.118693
v 2.153089 -0.316157 2.257728
v 2.189470 -0.000000 2.215814
v 2.153089 0.316157 2.257728
v 2.362161 -0.333140 2.500701
v 2.411484 0.000000 2.470802
v 2.362161 0.333140 2.500701
v 2.480863 -0.316157 2.798454
v 2.534853 0.000000 2.785587
v 2.480863 0.316157 2.798454
v 2.341829 -0.316157 3.365491
v 2.383742 -0.000000 3.401873
v 2.341829 0.316157 3.365491
v 2.098856 -0.333140 3.574564
v 2.128754 0.000000 3.623887
v 2.098856 0.333140 3.574564
v 1.801102 -0.316157 3.693266
v 1.813969 0.000000 3.747255
v 1.801102 0.316157 3.693266
v 1.259326 -0.728990 2.799504
v 1.520886 -0.781829 2.621093
v 1.800053 -0.728990 2.471729
v 1.408690 -0.781829 3.078671
v 1.693577 -0.839506 2.905980
v 1.978463 -0.781829 2.733289
v 1.587101 -0.728990 3.340230
v 1.866268 -0.781829 3.190866
v 2.127827 -0.728990 3.012455
v 1.800053 0.728990 2.471729
v 1.520886 0.781829 2.621093
v 1.259326 0.728990 2.799504
v 1.978463 0.781829 2.733289
v 1.693577 0.839506 2.905980
v 1.408690 0.781829 3.078671
v 2.127827 0.728990 3.012455
v 1.866268 0.781829 3.190866
v 1.587101 0.728990 3.340230
vt 0.437500 0.062500
vt 0.500000 0.125000
vt 0.437500 0.125000
vt 0.562500 0.062500
vt 0.500000 0.062500
vt 0.437500 0.187500
vt 0.562500 0.187500
vt 0.500000 0.187500
vt 0.375000 0.000000
vt 0.375000 0.062500
vt 0.437500 0.000000
vt 0.562500 0.000000
vt 0.500000 0.000000
vt 0.625000 0.000000
vt 0.625000 0.062500
vt 0.562500 0.125000
vt 0.625000 0.187500
vt 0.625000 0.250000
vt 0.562500 0.250000
vt 0.500000 0.250000
vt 0.437500 0.250000
vt 0.375000 0.250000
vt 0.375000 0.187500
vt 0.375000 0.125000
vt 0.437174 0.312147
vt 0.500000 0.373264
vt 0.434896 0.372179
vt 0.562826 0.312147
vt 0.500000 0.312283
vt 0.429579 0.428955
vt 0.570421 0.428955
vt 0.500000 0.432509
vt 0.374349 0.311849
vt 0.625651 0.311849
vt 0.565104 0.372179
vt 0.642578 0.419922
vt 0.666667 0.458333
vt 0.574544 0.487088
vt 0.500000 0.493056
vt 0.425456 0.487088
vt 0.333333 0.458333
vt 0.357422 0.419922
vt 0.369792 0.369792
vt 0.429742 0.554742
vt 0.500000 0.625000
vt 0.432726 0.625000
vt 0.570258 0.554742
vt 0.500000 0.557726
vt 0.429742 0.695258
vt 0.570258 0.695258
vt 0.500000 0.692274
vt 0.362088 0.550456
vt 0.637912 0.550456
vt 0.567274 0.625000
vt 0.637912 0.699544
vt 0.666667 0.791667
vt 0.574544 0.762912
vt 0.500000 0.756944
vt 0.425456 0.762912
vt 0.333333 0.791667
vt 0.362088 0.699544
vt 0.368056 0.625000
vt 0.429579 0.821045
vt 0.500000 0.876736
vt 0.434896 0.877821
vt 0.570421 0.821045
vt 0.500000 0.817491
vt 0.437174 0.937853
vt 0.562826 0.937853
vt 0.500000 0.937717
vt 0.357422 0.830078
vt 0.642578 0.830078
vt 0.565104 0.877821
vt 0.625651 0.938151
vt 0.625000 1.000000
vt 0.562500 1.000000
vt 0.500000 1.000000
vt 0.437500 1.000000
vt 0.375000 1.000000
vt 0.374349 0.938151
vt 0.369792 0.880208
vt 0.187147 0.562174
vt 0.248264 0.625000
vt 0.187283 0.625000
vt 0.303955 0.554579
vt 0.247179 0.559896
vt 0.187147 0.687826
vt 0.303955 0.695421
vt 0.247179 0.690104
vt 0.125000 0.500000
vt 0.125000 0.562500
vt 0.186849 0.499349
vt 0.294922 0.482422
vt 0.244792 0.494792
vt 0.307509 0.625000
vt 0.294922 0.767578
vt 0.244792 0.755208
vt 0.186849 0.750651
vt 0.125000 0.750000
vt 0.125000 0.687500
vt 0.125000 0.625000
vt 0.696045 0.554579
vt 0.751736 0.625000
vt 0.692491 0.625000
vt 0.812853 0.562174
vt 0.752821 0.559896
vt 0.696045 0.695421
vt 0.812853 0.687826
vt 0.752821 0.690104
vt 0.705078 0.482422
vt 0.813151 0.499349
vt 0.755208 0.494792
vt 0.875000 0.500000
vt 0.875000 0.562500
vt 0.812717 0.625000
vt 0.875000 0.687500
vt 0.875000 0.750000
vt 0.813151 0.750651
vt 0.755208 0.755208
vt 0.705078 0.767578
vt 0.631945 0.625000
vt 0.625000 0.125000
vt 0.630208 0.369792
vt 0.630208 0.880208
vt 0.875000 0.625000
vn -0.5780 -0.3362 0.7435
vn -0.8551 0.0000 0.5184
vn -0.7993 -0.3553 0.4845
vn -0.5780 0.3362 0.7435
vn -0.6152 0.0000 0.7884
vn -0.9266 -0.3362 0.1685
vn -0.9266 0.3362 0.1685
vn -0.9835 0.0000 0.1807
vn -0.1944 -0.5773 0.7930
vn -0.4186 -0.6737 0.6090
vn -0.2269 -0.3038 0.9253
vn -0.2269 0.3038 0.9253
vn -0.2381 0.0000 0.9712
vn -0.1944 0.5773 0.7930
vn -0.4186 0.6737 0.6090
vn -0.7993 0.3553 0.4845
vn -0.7336 0.6737 0.0894
vn -0.7930 0.5773 -0.1944
vn -0.9253 0.3038 -0.2269
vn -0.9712 0.0000 -0.2381
vn -0.9253 -0.3038 -0.2269
vn -0.7930 -0.5773 -0.1944
vn -0.7336 -0.6737 0.0894
vn -0.6047 -0.7071 0.3665
vn -0.7435 -0.3362 -0.5780
vn -0.5184 0.0000 -0.8551
vn -0.4845 -0.3553 -0.7993
vn -0.7435 0.3362 -0.5780
vn -0.7884 0.0000 -0.6152
vn -0.1685 -0.3362 -0.9266
vn -0.1685 0.3362 -0.9266
vn -0.1807 0.0000 -0.9835
vn -0.6090 -0.6737 -0.4186
vn -0.6090 0.6737 -0.4186
vn -0.4845 0.3553 -0.7993
vn -0.0894 0.6737 -0.7336
vn 0.1944 0.5773 -0.7930
vn 0.2269 0.3038 -0.9253
vn 0.2381 0.0000 -0.9712
vn 0.2269 -0.3038 -0.9253
vn 0.1944 -0.5773 -0.7930
vn -0.0894 -0.6737 -0.7336
vn -0.3665 -0.7071 -0.6047
vn 0.5780 -0.3362 -0.7435
vn 0.8551 0.0000 -0.5184
vn 0.7993 -0.3553 -0.4845
vn 0.5780 0.3362 -0.7435
vn 0.6152 0.0000 -0.7884
vn 0.9266 -0.3362 -0.1685
vn 0.9266 0.3362 -0.1685
vn 0.9835 0.0000 -0.1807
vn 0.4186 -0.6737 -0.6090
vn 0.4186 0.6737 -0.6090
vn 0.7993 0.3553 -0.4845
vn 0.7336 0.6737 -0.0894
vn 0.7930 0.5773 0.1944
vn 0.9253 0.3038 0.2269
vn 0.9712 0.0000 0.2381
vn 0.9253 -0.3038 0.2269
vn 0.7930 -0.5773 0.1944
vn 0.7336 -0.6737 -0.0894
vn 0.6047 -0.7071 -0.3665
vn 0.7435 -0.3362 0.5780
vn 0.5184 0.0000 0.8551
vn 0.4845 -0.3553 0.7993
vn 0.7435 0.3362 0.5780
vn 0.7884 0.0000 0.6152
vn 0.1685 -0.3362 0.9266
vn 0.1685 0.3362 0.9266
vn 0.1807 0.0000 0.9835
vn 0.6090 -0.6737 0.4186
vn 0.6090 0.6737 0.4186
vn 0.4845 0.3553 0.7993
vn 0.0894 0.6737 0.7336
vn 0.0894 -0.6737 0.7336
vn 0.3665 -0.7071 0.6047
vn -0.4617 -0.8797 -0.1132
vn 0.0000 -1.0000 0.0000
vn -0.3038 -0.9348 0.1841
vn 0.1132 -0.8797 -0.4617
vn -0.1841 -0.9348 -0.3038
vn -0.1132 -0.8797 0.4617
vn 0.4617 -0.8797 0.1132
vn 0.1841 -0.9348 0.3038
vn 0.3038 -0.9348 -0.1841
vn 0.1132 0.8797 -0.4617
vn 0.0000 1.0000 0.0000
vn 0.3038 0.9348 -0.1841
vn -0.4617 0.8797 -0.1132
vn -0.1841 0.9348 -0.3038
vn 0.4617 0.8797 0.1132
vn -0.1132 0.8797 0.4617
vn 0.1841 0.9348 0.3038
vn -0.3665 0.7071 -0.6047
vn -0.3038 0.9348 0.1841
vn 0.3665 0.7071 0.6047
vn 0.6047 0.7071 -0.3665
vn -0.6047 0.7071 0.3665
usemtl None
s 1
f 45/1/1 49/2/2 48/3/3
f 47/4/4 49/2/2 46/5/5
f 49/2/2 51/6/6 48/3/3
f 49/2/2 53/7/7 52/8/8
f 1/9/9 45/1/1 11/10/10
f 12/11/11 46/5/5 45/1/1
f 14/12/12 46/5/5 13/13/13
f 2/14/14 47/4/4 14/12/12
f 15/15/15 50/16/16 47/4/4
f 50/16/16 17/17/17 53/7/7
f 53/7/7 4/18/18 18/19/19
f 52/8/8 18/19/19 19/20/20
f 52/8/8 20/21/21 51/6/6
f 51/6/6 3/22/22 9/23/23
f 48/3/3 9/23/23 10/24/24
f 11/10/10 48/3/3 10/24/24
f 54/25/25 58/26/26 57/27/27
f 56/28/28 58/26/26 55/29/29
f 58/26/26 60/30/30 57/27/27
f 58/26/26 62/31/31 61/32/32
f 3/22/22 54/25/25 23/33/33
f 20/21/21 55/29/29 54/25/25
f 18/19/19 55/29/29 19/20/20
f 4/18/18 56/28/28 18/19/19
f 24/34/34 59/35/35 56/28/28
f 59/35/35 26/36/36 62/31/31
f 62/31/31 8/37/37 27/38/38
f 61/32/32 27/38/38 28/39/39
f 61/32/32 29/40/40 60/30/30
f 60/30/30 7/41/41 21/42/42
f 57/27/27 21/42/42 22/43/43
f 23/33/33 57/27/27 22/43/43
f 63/44/44 67/45/45 66/46/46
f 65/47/47 67/45/45 64/48/48
f 67/45/45 69/49/49 66/46/46
f 67/45/45 71/50/50 70/51/51
f 7/41/41 63/44/44 32/52/52
f 29/40/40 64/48/48 63/44/44
f 27/38/38 64/48/48 28/39/39
f 8/37/37 65/47/47 27/38/38
f 33/53/53 68/54/54 65/47/47
f 68/54/54 35/55/55 71/50/50
f 71/50/50 6/56/56 36/57/57
f 70/51/51 36/57/57 37/58/58
f 70/51/51 38/59/59 69/49/49
f 69/49/49 5/60/60 30/61/61
f 66/46/46 30/61/61 31/62/62
f 32/52/52 66/46/46 31/62/62
f 72/63/63 76/64/64 75/65/65
f 74/66/66 76/64/64 73/67/67
f 76/64/64 78/68/68 75/65/65
f 76/64/64 80/69/69 79/70/70
f 5/60/60 72/63/63 41/71/71
f 38/59/59 73/67/67 72/63/63
f 36/57/57 73/67/67 37/58/58
f 6/56/56 74/66/66 36/57/57
f 42/72/72 77/73/73 74/66/66
f 77/73/73 44/74/74 80/69/69
f 80/69/69 2/75/14 14/76/12
f 79/70/70 14/76/12 13/77/13
f 79/70/70 12/78/11 78/68/68
f 78/68/68 1/79/9 39/80/75
f 75/65/65 39/80/75 40/81/76
f 41/71/71 75/65/65 40/81/76
f 81/82/77 85/83/78 84/84/79
f 83/85/80 85/83/78 82/86/81
f 85/83/78 87/87/82 84/84/79
f 85/83/78 89/88/83 88/89/84
f 3/90/22 81/82/77 9/91/23
f 23/92/33 82/86/81 81/82/77
f 21/93/42 82/86/81 22/94/43
f 7/41/41 83/85/80 21/93/42
f 32/52/52 86/95/85 83/85/80
f 86/95/85 30/61/61 89/88/83
f 89/88/83 5/60/60 41/96/71
f 88/89/84 41/96/71 40/97/76
f 88/89/84 39/98/75 87/87/82
f 87/87/82 1/99/9 11/100/10
f 84/84/79 11/100/10 10/101/24
f 9/91/23 84/84/79 10/101/24
f 90/102/86 94/103/87 93/104/88
f 92/105/89 94/103/87 91/106/90
f 94/103/87 96/107/91 93/104/88
f 94/103/87 98/108/92 97/109/93
f 8/37/37 90/102/86 33/53/53
f 26/110/36 91/106/90 90/102/86
f 24/111/34 91/106/90 25/112/94
f 4/113/18 92/105/89 24/111/34
f 17/114/17 95/115/95 92/105/89
f 95/115/95 15/116/15 98/108/92
f 98/108/92 2/117/14 44/118/74
f 97/109/93 44/118/74 43/119/96
f 97/109/93 42/120/72 96/107/91
f 96/107/91 6/56/56 35/55/55
f 93/104/88 35/55/55 34/121/97
f 33/53/53 93/104/88 34/121/97
f 45/1/1 46/5/5 49/2/2
f 47/4/4 50/16/16 49/2/2
f 49/2/2 52/8/8 51/6/6
f 49/2/2 50/16/16 53/7/7
f 1/9/9 12/11/11 45/1/1
f 12/11/11 13/13/13 46/5/5
f 14/12/12 47/4/4 46/5/5
f 2/14/14 15/15/15 47/4/4
f 15/15/15 16/122/98 50/16/16
f 50/16/16 16/122/98 17/17/17
f 53/7/7 17/17/17 4/18/18
f 52/8/8 53/7/7 18/19/19
f 52/8/8 19/20/20 20/21/21
f 51/6/6 20/21/21 3/22/22
f 48/3/3 51/6/6 9/23/23
f 11/10/10 45/1/1 48/3/3
f 54/25/25 55/29/29 58/26/26
f 56/28/28 59/35/35 58/26/26
f 58/26/26 61/32/32 60/30/30
f 58/26/26 59/35/35 62/31/31
f 3/22/22 20/21/21 54/25/25
f 20/21/21 19/20/20 55/29/29
f 18/19/19 56/28/28 55/29/29
f 4/18/18 24/34/34 56/28/28
f 24/34/34 25/123/94 59/35/35
f 59/35/35 25/123/94 26/36/36
f 62/31/31 26/36/36 8/37/37
f 61/32/32 62/31/31 27/38/38
f 61/32/32 28/39/39 29/40/40
f 60/30/30 29/40/40 7/41/41
f 57/27/27 60/30/30 21/42/42
f 23/33/33 54/25/25 57/27/27
f 63/44/44 64/48/48 67/45/45
f 65/47/47 68/54/54 67/45/45
f 67/45/45 70/51/51 69/49/49
f 67/45/45 68/54/54 71/50/50
f 7/41/41 29/40/40 63/44/44
f 29/40/40 28/39/39 64/48/48
f 27/38/38 65/47/47 64/48/48
f 8/37/37 33/53/53 65/47/47
f 33/53/53 34/121/97 68/54/54
f 68/54/54 34/121/97 35/55/55
f 71/50/50 35/55/55 6/56/56
f 70/51/51 71/50/50 36/57/57
f 70/51/51 37/58/58 38/59/59
f 69/49/49 38/59/59 5/60/60
f 66/46/46 69/49/49 30/61/61
f 32/52/52 63/44/44 66/46/46
f 72/63/63 73/67/67 76/64/64
f 74/66/66 77/73/73 76/64/64
f 76/64/64 79/70/70 78/68/68
f 76/64/64 77/73/73 80/69/69
f 5/60/60 38/59/59 72/63/63
f 38/59/59 37/58/58 73/67/67
f 36/57/57 74/66/66 73/67/67
f 6/56/56 42/72/72 74/66/66
f 42/72/72 43/124/96 77/73/73
f 77/73/73 43/124/96 44/74/74
f 80/69/69 44/74/74 2/75/14
f 79/70/70 80/69/69 14/76/12
f 79/70/70 13/77/13 12/78/11
f 78/68/68 12/78/11 1/79/9
f 75/65/65 78/68/68 39/80/75
f 41/71/71 72/63/63 75/65/65
f 81/82/77 82/86/81 85/83/78
f 83/85/80 86/95/85 85/83/78
f 85/83/78 88/89/84 87/87/82
f 85/83/78 86/95/85 89/88/83
f 3/90/22 23/92/33 81/82/77
f 23/92/33 22/94/43 82/86/81
f 21/93/42 83/85/80 82/86/81
f 7/41/41 32/52/52 83/85/80
f 32/52/52 31/62/62 86/95/85
f 86/95/85 31/62/62 30/61/61
f 89/88/83 30/61/61 5/60/60
f 88/89/84 89/88/83 41/96/71
f 88/89/84 40/97/76 39/98/75
f 87/87/82 39/98/75 1/99/9
f 84/84/79 87/87/82 11/100/10
f 9/91/23 81/82/77 84/84/79
f 90/102/86 91/106/90 94/103/87
f 92/105/89 95/115/95 94/103/87
f 94/103/87 97/109/93 96/107/91
f 94/103/87 95/115/95 98/108/92
f 8/37/37 26/110/36 90/102/86
f 26/110/36 25/112/94 91/106/90
f 24/111/34 92/105/89 91/106/90
f 4/113/18 17/114/17 92/105/89
f 17/114/17 16/125/98 95/115/95
f 95/115/95 16/125/98 15/116/15
f 98/108/92 15/116/15 2/117/14
f 97/109/93 98/108/92 44/118/74
f 97/109/93 43/119/96 42/120/72
f 96/107/91 42/120/72 6/56/56
f 93/104/88 96/107/91 35/55/55
f 33/53/53 90/102/86 93/104/88
